<?xml version="1.0" ?>
<mxfile host="65bd71144e">
	<diagram id="RFndyrCF2-3MIdXtw8gX" name="Page-1">
		<mxGraphModel dx="422" dy="816" grid="1" gridSize="10" guides="1" tooltips="1" connect="1" arrows="1" fold="1" page="1" pageScale="1" pageWidth="850" pageHeight="1100" math="0" shadow="0">
			<root>
				<mxCell id="0"/>
				<mxCell id="1" parent="0"/>
				<mxCell id="5326210768" value="&lt;b&gt;FunctionDef&lt;/b&gt;&lt;br&gt;fun_name: plus" style="rounded=1;whiteSpace=wrap;html=1;fillColor=#66B2FF;strokeColor=#000000;" parent="1" vertex="1">
					<mxGeometry x="451.0" y="0.0" width="120" height="60" as="geometry"/>
				</mxCell>
				<mxCell id="5326211056" value="&lt;b&gt;arguments&lt;/b&gt;" style="rounded=1;whiteSpace=wrap;html=1;fillColor=#E6E6E6;strokeColor=#000000;" parent="1" vertex="1">
					<mxGeometry x="687.0" y="79.2" width="120" height="60" as="geometry"/>
				</mxCell>
				<mxCell id="5326210960" value="&lt;b&gt;arg&lt;/b&gt;&lt;br&gt;arg: a" style="rounded=1;whiteSpace=wrap;html=1;fillColor=#E6E6E6;strokeColor=#000000;" parent="1" vertex="1">
					<mxGeometry x="687.0" y="158.4" width="120" height="60" as="geometry"/>
				</mxCell>
				<mxCell id="5326210528" value="&lt;b&gt;arg&lt;/b&gt;&lt;br&gt;arg: b" style="rounded=1;whiteSpace=wrap;html=1;fillColor=#E6E6E6;strokeColor=#000000;" parent="1" vertex="1">
					<mxGeometry x="818.999" y="158.4" width="120" height="60" as="geometry"/>
				</mxCell>
				<mxCell id="5326210720" value="&lt;b&gt;Assign&lt;/b&gt;" style="rounded=1;whiteSpace=wrap;html=1;fillColor=#D6FFC9;strokeColor=#000000;" parent="1" vertex="1">
					<mxGeometry x="517.0" y="79.2" width="120" height="60" as="geometry"/>
				</mxCell>
				<mxCell id="5326210816" value="&lt;b&gt;Name&lt;/b&gt;&lt;br&gt;id: x" style="rounded=1;whiteSpace=wrap;html=1;fillColor=#CCE5FF;strokeColor=#000000;" parent="1" vertex="1">
					<mxGeometry x="517.0" y="158.4" width="120" height="60" as="geometry"/>
				</mxCell>
				<mxCell id="4310303696" value="&lt;b&gt;Store&lt;/b&gt;" style="rounded=1;whiteSpace=wrap;html=1;fillColor=#E6E6E6;strokeColor=#000000;" parent="1" vertex="1">
					<mxGeometry x="407.0" y="237.60000000000002" width="120" height="60" as="geometry"/>
				</mxCell>
				<mxCell id="5326210624" value="&lt;b&gt;Name&lt;/b&gt;&lt;br&gt;id: a" style="rounded=1;whiteSpace=wrap;html=1;fillColor=#CCE5FF;strokeColor=#000000;" parent="1" vertex="1">
					<mxGeometry x="560.0" y="237.60000000000002" width="120" height="60" as="geometry"/>
				</mxCell>
				<mxCell id="4310303600" value="&lt;b&gt;Load&lt;/b&gt;" style="rounded=1;whiteSpace=wrap;html=1;fillColor=#E6E6E6;strokeColor=#000000;" parent="1" vertex="1">
					<mxGeometry x="264.0" y="316.8" width="120" height="60" as="geometry"/>
				</mxCell>
				<mxCell id="5303097792" value="&lt;b&gt;Assign&lt;/b&gt;" style="rounded=1;whiteSpace=wrap;html=1;fillColor=#D6FFC9;strokeColor=#000000;" parent="1" vertex="1">
					<mxGeometry x="385.0" y="79.2" width="120" height="60" as="geometry"/>
				</mxCell>
				<mxCell id="5303103504" value="&lt;b&gt;Name&lt;/b&gt;&lt;br&gt;id: a" style="rounded=1;whiteSpace=wrap;html=1;fillColor=#CCE5FF;strokeColor=#000000;" parent="1" vertex="1">
					<mxGeometry x="253.0" y="158.4" width="120" height="60" as="geometry"/>
				</mxCell>
				<mxCell id="5303103024" value="&lt;b&gt;Constant&lt;/b&gt;&lt;br&gt;value: 10" style="rounded=1;whiteSpace=wrap;html=1;fillColor=#FFFFFF;strokeColor=#000000;" parent="1" vertex="1">
					<mxGeometry x="385.0" y="158.4" width="120" height="60" as="geometry"/>
				</mxCell>
				<mxCell id="5303097888" value="&lt;b&gt;Return&lt;/b&gt;" style="rounded=1;whiteSpace=wrap;html=1;fillColor=#D6FFC9;strokeColor=#000000;" parent="1" vertex="1">
					<mxGeometry x="187.0" y="79.2" width="120" height="60" as="geometry"/>
				</mxCell>
				<mxCell id="5303102112" value="&lt;b&gt;BinOp&lt;/b&gt;" style="rounded=1;whiteSpace=wrap;html=1;fillColor=#CCCCFF;strokeColor=#000000;" parent="1" vertex="1">
					<mxGeometry x="121.0" y="158.4" width="120" height="60" as="geometry"/>
				</mxCell>
				<mxCell id="5303106192" value="&lt;b&gt;Name&lt;/b&gt;&lt;br&gt;id: a" style="rounded=1;whiteSpace=wrap;html=1;fillColor=#CCE5FF;strokeColor=#000000;" parent="1" vertex="1">
					<mxGeometry x="132.0" y="237.60000000000002" width="120" height="60" as="geometry"/>
				</mxCell>
				<mxCell id="4310304176" value="&lt;b&gt;Add&lt;/b&gt;" style="rounded=1;whiteSpace=wrap;html=1;fillColor=#E6E6E6;strokeColor=#000000;" parent="1" vertex="1">
					<mxGeometry x="0.0" y="237.60000000000002" width="120" height="60" as="geometry"/>
				</mxCell>
				<mxCell id="5303094144" value="&lt;b&gt;Name&lt;/b&gt;&lt;br&gt;id: b" style="rounded=1;whiteSpace=wrap;html=1;fillColor=#CCE5FF;strokeColor=#000000;" parent="1" vertex="1">
					<mxGeometry x="264.0" y="237.60000000000002" width="120" height="60" as="geometry"/>
				</mxCell>
				<mxCell id="5326210768_5326211056" value="" style="endArrow=classic;html=1;" parent="1" source="5326210768" target="5326211056" edge="1">
					<mxGeometry width="50" height="50" relative="1" as="geometry">
						<mxPoint x="400" y="440" as="sourcePoint"/>
						<mxPoint x="450" y="390" as="targetPoint"/>
					</mxGeometry>
				</mxCell>
				<mxCell id="5326210768_5326210720" value="" style="endArrow=classic;html=1;" parent="1" source="5326210768" target="5326210720" edge="1">
					<mxGeometry width="50" height="50" relative="1" as="geometry">
						<mxPoint x="400" y="440" as="sourcePoint"/>
						<mxPoint x="450" y="390" as="targetPoint"/>
					</mxGeometry>
				</mxCell>
				<mxCell id="5326210768_5303097792" value="" style="endArrow=classic;html=1;" parent="1" source="5326210768" target="5303097792" edge="1">
					<mxGeometry width="50" height="50" relative="1" as="geometry">
						<mxPoint x="400" y="440" as="sourcePoint"/>
						<mxPoint x="450" y="390" as="targetPoint"/>
					</mxGeometry>
				</mxCell>
				<mxCell id="5326210768_5303097888" value="" style="endArrow=classic;html=1;" parent="1" source="5326210768" target="5303097888" edge="1">
					<mxGeometry width="50" height="50" relative="1" as="geometry">
						<mxPoint x="400" y="440" as="sourcePoint"/>
						<mxPoint x="450" y="390" as="targetPoint"/>
					</mxGeometry>
				</mxCell>
				<mxCell id="5326211056_5326210960" value="" style="endArrow=classic;html=1;" parent="1" source="5326211056" target="5326210960" edge="1">
					<mxGeometry width="50" height="50" relative="1" as="geometry">
						<mxPoint x="400" y="440" as="sourcePoint"/>
						<mxPoint x="450" y="390" as="targetPoint"/>
					</mxGeometry>
				</mxCell>
				<mxCell id="5326211056_5326210528" value="" style="endArrow=classic;html=1;" parent="1" source="5326211056" target="5326210528" edge="1">
					<mxGeometry width="50" height="50" relative="1" as="geometry">
						<mxPoint x="400" y="440" as="sourcePoint"/>
						<mxPoint x="450" y="390" as="targetPoint"/>
					</mxGeometry>
				</mxCell>
				<mxCell id="5326210720_5326210816" value="" style="endArrow=classic;html=1;" parent="1" source="5326210720" target="5326210816" edge="1">
					<mxGeometry width="50" height="50" relative="1" as="geometry">
						<mxPoint x="400" y="440" as="sourcePoint"/>
						<mxPoint x="450" y="390" as="targetPoint"/>
					</mxGeometry>
				</mxCell>
				<mxCell id="5326210720_5326210624" value="" style="endArrow=classic;html=1;" parent="1" source="5326210720" target="5326210624" edge="1">
					<mxGeometry width="50" height="50" relative="1" as="geometry">
						<mxPoint x="400" y="440" as="sourcePoint"/>
						<mxPoint x="450" y="390" as="targetPoint"/>
					</mxGeometry>
				</mxCell>
				<mxCell id="5326210816_4310303696" value="" style="endArrow=classic;html=1;" parent="1" source="5326210816" target="4310303696" edge="1">
					<mxGeometry width="50" height="50" relative="1" as="geometry">
						<mxPoint x="400" y="440" as="sourcePoint"/>
						<mxPoint x="450" y="390" as="targetPoint"/>
					</mxGeometry>
				</mxCell>
				<mxCell id="5326210624_4310303600" value="" style="endArrow=classic;html=1;" parent="1" source="5326210624" target="4310303600" edge="1">
					<mxGeometry width="50" height="50" relative="1" as="geometry">
						<mxPoint x="400" y="440" as="sourcePoint"/>
						<mxPoint x="450" y="390" as="targetPoint"/>
					</mxGeometry>
				</mxCell>
				<mxCell id="5303097792_5303103504" value="" style="endArrow=classic;html=1;" parent="1" source="5303097792" target="5303103504" edge="1">
					<mxGeometry width="50" height="50" relative="1" as="geometry">
						<mxPoint x="400" y="440" as="sourcePoint"/>
						<mxPoint x="450" y="390" as="targetPoint"/>
					</mxGeometry>
				</mxCell>
				<mxCell id="5303097792_5303103024" value="" style="endArrow=classic;html=1;" parent="1" source="5303097792" target="5303103024" edge="1">
					<mxGeometry width="50" height="50" relative="1" as="geometry">
						<mxPoint x="400" y="440" as="sourcePoint"/>
						<mxPoint x="450" y="390" as="targetPoint"/>
					</mxGeometry>
				</mxCell>
				<mxCell id="5303103504_4310303696" value="" style="endArrow=classic;html=1;" parent="1" source="5303103504" target="4310303696" edge="1">
					<mxGeometry width="50" height="50" relative="1" as="geometry">
						<mxPoint x="400" y="440" as="sourcePoint"/>
						<mxPoint x="450" y="390" as="targetPoint"/>
					</mxGeometry>
				</mxCell>
				<mxCell id="5303097888_5303102112" value="" style="endArrow=classic;html=1;" parent="1" source="5303097888" target="5303102112" edge="1">
					<mxGeometry width="50" height="50" relative="1" as="geometry">
						<mxPoint x="400" y="440" as="sourcePoint"/>
						<mxPoint x="450" y="390" as="targetPoint"/>
					</mxGeometry>
				</mxCell>
				<mxCell id="5303102112_5303106192" value="" style="endArrow=classic;html=1;" parent="1" source="5303102112" target="5303106192" edge="1">
					<mxGeometry width="50" height="50" relative="1" as="geometry">
						<mxPoint x="400" y="440" as="sourcePoint"/>
						<mxPoint x="450" y="390" as="targetPoint"/>
					</mxGeometry>
				</mxCell>
				<mxCell id="5303102112_4310304176" value="" style="endArrow=classic;html=1;" parent="1" source="5303102112" target="4310304176" edge="1">
					<mxGeometry width="50" height="50" relative="1" as="geometry">
						<mxPoint x="400" y="440" as="sourcePoint"/>
						<mxPoint x="450" y="390" as="targetPoint"/>
					</mxGeometry>
				</mxCell>
				<mxCell id="5303102112_5303094144" value="" style="endArrow=classic;html=1;" parent="1" source="5303102112" target="5303094144" edge="1">
					<mxGeometry width="50" height="50" relative="1" as="geometry">
						<mxPoint x="400" y="440" as="sourcePoint"/>
						<mxPoint x="450" y="390" as="targetPoint"/>
					</mxGeometry>
				</mxCell>
				<mxCell id="5303106192_4310303600" value="" style="endArrow=classic;html=1;" parent="1" source="5303106192" target="4310303600" edge="1">
					<mxGeometry width="50" height="50" relative="1" as="geometry">
						<mxPoint x="400" y="440" as="sourcePoint"/>
						<mxPoint x="450" y="390" as="targetPoint"/>
					</mxGeometry>
				</mxCell>
				<mxCell id="5303094144_4310303600" value="" style="endArrow=classic;html=1;" parent="1" source="5303094144" target="4310303600" edge="1">
					<mxGeometry width="50" height="50" relative="1" as="geometry">
						<mxPoint x="400" y="440" as="sourcePoint"/>
						<mxPoint x="450" y="390" as="targetPoint"/>
					</mxGeometry>
				</mxCell>
			</root>
		</mxGraphModel>
	</diagram>
</mxfile>
